<?xml version="1.0" standalone="no"?>
<!DOCTYPE svg PUBLIC "-//W3C//DTD SVG 20010904//EN"
 "http://www.w3.org/TR/2001/REC-SVG-20010904/DTD/svg10.dtd">
<svg version="1.0" xmlns="http://www.w3.org/2000/svg"
 width="310.000000pt" height="226.000000pt" viewBox="0 0 310.000000 226.000000"
 preserveAspectRatio="xMidYMid meet">
<metadata>
Created by potrace 1.16, written by Peter Selinger 2001-2019
</metadata>
<g transform="translate(0.000000,226.000000) scale(0.100000,-0.100000)"
fill="#000000" stroke="none">
<path d="M1395 1990 c-220 -35 -449 -169 -583 -342 -56 -73 -125 -207 -158
-308 -26 -80 -28 -96 -28 -255 0 -156 2 -177 27 -258 159 -516 690 -794 1189
-623 443 151 703 605 609 1061 -70 341 -313 600 -656 700 -102 30 -293 41
-400 25z m297 -114 c306 -60 528 -257 634 -561 26 -74 28 -91 28 -235 0 -149
-1 -159 -32 -249 -43 -124 -99 -217 -186 -308 -111 -118 -216 -182 -373 -229
-75 -23 -107 -27 -213 -27 -230 0 -402 69 -568 227 -111 106 -181 221 -224
373 -33 112 -33 314 0 427 73 254 268 462 512 548 134 47 289 60 422 34z"/>
<path d="M1077 1684 c-4 -4 -7 -17 -7 -30 0 -17 7 -24 29 -29 15 -3 41 -20 57
-36 l29 -30 0 -444 0 -443 -24 -26 c-14 -15 -39 -30 -55 -34 -25 -7 -32 -14
-34 -40 l-3 -32 230 0 231 0 0 33 c0 29 -4 33 -48 47 -74 24 -82 48 -82 253
l0 168 57 -3 56 -3 103 -175 c56 -96 121 -199 145 -229 65 -80 92 -91 226 -91
l113 0 0 35 c0 25 -4 35 -15 35 -31 0 -94 40 -128 82 -19 24 -80 115 -135 203
l-100 160 58 26 c73 34 147 101 172 156 28 63 34 158 14 225 -25 87 -69 136
-160 183 l-78 40 -322 3 c-177 2 -325 0 -329 -4z m564 -106 c93 -32 134 -96
134 -208 0 -87 -24 -143 -77 -183 -50 -37 -92 -47 -199 -47 l-99 0 0 225 0
225 104 0 c56 0 118 -5 137 -12z"/>
</g>
</svg>
